<mxfile host="65bd71144e">
    <diagram id="t7LJyunlKq-FmeB4X4zX" name="Page-1">
        <mxGraphModel dx="1338" dy="1129" grid="1" gridSize="10" guides="1" tooltips="1" connect="1" arrows="1" fold="1" page="1" pageScale="1" pageWidth="1100" pageHeight="850" math="0" shadow="0">
            <root>
                <mxCell id="0"/>
                <mxCell id="1" parent="0"/>
                <mxCell id="2" value="Start" style="rounded=0;whiteSpace=wrap;html=1;" parent="1" vertex="1">
                    <mxGeometry x="482.5" y="123" width="120" height="60" as="geometry"/>
                </mxCell>
                <mxCell id="3" value="&lt;font style=&quot;font-size: 10px;&quot;&gt;Get user input (rock, paper, or scissors)&lt;/font&gt;" style="ellipse;whiteSpace=wrap;html=1;aspect=fixed;" parent="1" vertex="1">
                    <mxGeometry x="502.5" y="223" width="80" height="80" as="geometry"/>
                </mxCell>
                <mxCell id="4" value="Program chooses random option" style="ellipse;whiteSpace=wrap;html=1;fontSize=10;" parent="1" vertex="1">
                    <mxGeometry x="502.5" y="343" width="80" height="80" as="geometry"/>
                </mxCell>
                <mxCell id="5" value="" style="endArrow=none;html=1;fontSize=10;entryX=0.5;entryY=1;entryDx=0;entryDy=0;exitX=0.5;exitY=0;exitDx=0;exitDy=0;" parent="1" source="4" target="3" edge="1">
                    <mxGeometry width="50" height="50" relative="1" as="geometry">
                        <mxPoint x="412.5" y="353" as="sourcePoint"/>
                        <mxPoint x="462.5" y="303" as="targetPoint"/>
                    </mxGeometry>
                </mxCell>
                <mxCell id="6" value="" style="endArrow=none;html=1;fontSize=10;entryX=0.5;entryY=1;entryDx=0;entryDy=0;exitX=0.5;exitY=0;exitDx=0;exitDy=0;" parent="1" source="3" target="2" edge="1">
                    <mxGeometry width="50" height="50" relative="1" as="geometry">
                        <mxPoint x="372.5" y="313" as="sourcePoint"/>
                        <mxPoint x="422.5" y="263" as="targetPoint"/>
                    </mxGeometry>
                </mxCell>
                <mxCell id="12" value="User (rock),&lt;br&gt;Program (rock),&lt;br&gt;&lt;br&gt;&amp;nbsp;Tie" style="rhombus;whiteSpace=wrap;html=1;fontSize=10;" vertex="1" parent="1">
                    <mxGeometry x="90" y="533" width="135" height="130" as="geometry"/>
                </mxCell>
                <mxCell id="13" value="User (rock),&lt;br&gt;Program (paper),&lt;br&gt;&lt;br&gt;&amp;nbsp;Program WINS" style="rhombus;whiteSpace=wrap;html=1;fontSize=10;" vertex="1" parent="1">
                    <mxGeometry x="405" y="533" width="135" height="130" as="geometry"/>
                </mxCell>
                <mxCell id="14" value="User (rock),&lt;br&gt;Program (scissors),&lt;br&gt;&lt;br&gt;&amp;nbsp;User WINS" style="rhombus;whiteSpace=wrap;html=1;fontSize=10;" vertex="1" parent="1">
                    <mxGeometry x="735" y="533" width="135" height="130" as="geometry"/>
                </mxCell>
                <mxCell id="15" value="User (paper),&lt;br&gt;Program (scissors),&lt;br&gt;&lt;br&gt;&amp;nbsp;Program WINS" style="rhombus;whiteSpace=wrap;html=1;fontSize=10;" vertex="1" parent="1">
                    <mxGeometry x="540" y="533" width="135" height="130" as="geometry"/>
                </mxCell>
                <mxCell id="16" value="User (paper),&lt;br&gt;Program (paper),&lt;br&gt;&lt;br&gt;&amp;nbsp;Tie" style="rhombus;whiteSpace=wrap;html=1;fontSize=10;" vertex="1" parent="1">
                    <mxGeometry x="225" y="533" width="135" height="130" as="geometry"/>
                </mxCell>
                <mxCell id="17" value="User (paper),&lt;br&gt;Program (rock),&lt;br&gt;&lt;br&gt;&amp;nbsp;User WINS" style="rhombus;whiteSpace=wrap;html=1;fontSize=10;" vertex="1" parent="1">
                    <mxGeometry x="805" y="598" width="135" height="130" as="geometry"/>
                </mxCell>
                <mxCell id="19" value="User (scissors),&lt;br&gt;Program (scissors),&lt;br&gt;&lt;br&gt;&amp;nbsp;Tie" style="rhombus;whiteSpace=wrap;html=1;fontSize=10;" vertex="1" parent="1">
                    <mxGeometry x="155" y="598" width="135" height="130" as="geometry"/>
                </mxCell>
                <mxCell id="20" value="User (scissors),&lt;br&gt;Program (paper),&lt;br&gt;&lt;br&gt;&amp;nbsp;User WINS" style="rhombus;whiteSpace=wrap;html=1;fontSize=10;" vertex="1" parent="1">
                    <mxGeometry x="875" y="533" width="135" height="130" as="geometry"/>
                </mxCell>
                <mxCell id="21" value="User (scissors),&lt;br&gt;Program (rock),&lt;br&gt;&lt;br&gt;&amp;nbsp;Program WINS" style="rhombus;whiteSpace=wrap;html=1;fontSize=10;" vertex="1" parent="1">
                    <mxGeometry x="475" y="598" width="135" height="130" as="geometry"/>
                </mxCell>
                <mxCell id="23" value="Tie" style="rounded=0;whiteSpace=wrap;html=1;" vertex="1" parent="1">
                    <mxGeometry x="191.5" y="473" width="62" height="30" as="geometry"/>
                </mxCell>
                <mxCell id="24" value="Program WINS" style="rounded=0;whiteSpace=wrap;html=1;" vertex="1" parent="1">
                    <mxGeometry x="497.5" y="473" width="90" height="30" as="geometry"/>
                </mxCell>
                <mxCell id="25" value="User WINS" style="rounded=0;whiteSpace=wrap;html=1;" vertex="1" parent="1">
                    <mxGeometry x="825" y="473" width="77" height="30" as="geometry"/>
                </mxCell>
                <mxCell id="29" value="" style="endArrow=classic;html=1;exitX=0.031;exitY=0.75;exitDx=0;exitDy=0;exitPerimeter=0;" edge="1" parent="1" source="4" target="23">
                    <mxGeometry width="50" height="50" relative="1" as="geometry">
                        <mxPoint x="290" y="397" as="sourcePoint"/>
                        <mxPoint x="255" y="473" as="targetPoint"/>
                    </mxGeometry>
                </mxCell>
                <mxCell id="30" value="" style="endArrow=classic;html=1;exitX=0.5;exitY=1;exitDx=0;exitDy=0;entryX=0.5;entryY=0;entryDx=0;entryDy=0;" edge="1" parent="1" source="4" target="24">
                    <mxGeometry width="50" height="50" relative="1" as="geometry">
                        <mxPoint x="514.98" y="413" as="sourcePoint"/>
                        <mxPoint x="545" y="463" as="targetPoint"/>
                    </mxGeometry>
                </mxCell>
                <mxCell id="31" value="" style="endArrow=classic;html=1;exitX=0.951;exitY=0.783;exitDx=0;exitDy=0;entryX=0;entryY=0;entryDx=0;entryDy=0;exitPerimeter=0;" edge="1" parent="1" source="4" target="25">
                    <mxGeometry width="50" height="50" relative="1" as="geometry">
                        <mxPoint x="524.98" y="423" as="sourcePoint"/>
                        <mxPoint x="275" y="493" as="targetPoint"/>
                    </mxGeometry>
                </mxCell>
            </root>
        </mxGraphModel>
    </diagram>
</mxfile>